<svg width="58" height="31" viewBox="0 0 58 31" fill="none" xmlns="http://www.w3.org/2000/svg">
<rect x="0.5" y="0.5" width="57" height="30" rx="5.5" stroke="#4F372D"/>
<circle cx="11" cy="15.5" r="2.5" stroke="#4F372D"/>
<path d="M21.8608 20V11.2727H25.1335C25.804 11.2727 26.3665 11.3892 26.821 11.6222C27.2784 11.8551 27.6236 12.1818 27.8565 12.6023C28.0923 13.0199 28.2102 13.5071 28.2102 14.0639C28.2102 14.6236 28.0909 15.1094 27.8523 15.5213C27.6165 15.9304 27.2685 16.2472 26.8082 16.4716C26.348 16.6932 25.7827 16.804 25.1122 16.804H22.7812V15.4915H24.8991C25.2912 15.4915 25.6122 15.4375 25.8622 15.3295C26.1122 15.2187 26.2969 15.0582 26.4162 14.848C26.5384 14.6349 26.5994 14.3736 26.5994 14.0639C26.5994 13.7543 26.5384 13.4901 26.4162 13.2713C26.294 13.0497 26.108 12.8821 25.858 12.7685C25.608 12.652 25.2855 12.5938 24.8906 12.5938H23.4418V20H21.8608ZM26.3693 16.0455L28.5298 20H26.7656L24.6435 16.0455H26.3693ZM29.5973 22.4545V13.4545H31.1143V14.5369H31.2038C31.2834 14.3778 31.3956 14.2088 31.5405 14.0298C31.6854 13.848 31.8814 13.6932 32.1286 13.5653C32.3757 13.4347 32.6911 13.3693 33.0746 13.3693C33.5803 13.3693 34.0362 13.4986 34.4425 13.7571C34.8516 14.0128 35.1754 14.392 35.4141 14.8949C35.6555 15.3949 35.7763 16.0085 35.7763 16.7358C35.7763 17.4545 35.6584 18.0653 35.4226 18.5682C35.1868 19.071 34.8658 19.4545 34.4595 19.7188C34.0533 19.983 33.593 20.1151 33.0788 20.1151C32.7038 20.1151 32.3928 20.0526 32.1456 19.9276C31.8984 19.8026 31.6996 19.652 31.549 19.4759C31.4013 19.2969 31.2862 19.1278 31.2038 18.9688H31.1399V22.4545H29.5973ZM31.1101 16.7273C31.1101 17.1506 31.1697 17.5213 31.2891 17.8395C31.4112 18.1577 31.5859 18.4062 31.8132 18.5852C32.0433 18.7614 32.3217 18.8494 32.6484 18.8494C32.9893 18.8494 33.2749 18.7585 33.505 18.5767C33.7351 18.392 33.9084 18.1406 34.0249 17.8224C34.1442 17.5014 34.2038 17.1364 34.2038 16.7273C34.2038 16.321 34.1456 15.9602 34.0291 15.6449C33.9126 15.3295 33.7393 15.0824 33.5092 14.9034C33.2791 14.7244 32.9922 14.6349 32.6484 14.6349C32.3189 14.6349 32.0391 14.7216 31.8089 14.8949C31.5788 15.0682 31.4041 15.3111 31.2848 15.6236C31.1683 15.9361 31.1101 16.304 31.1101 16.7273Z" fill="#4F372D"/>
<circle cx="47" cy="15.5" r="2.5" stroke="#4F372D"/>
</svg>
