<svg width="43" height="31" viewBox="0 0 43 31" fill="none" xmlns="http://www.w3.org/2000/svg">
<path fill-rule="evenodd" clip-rule="evenodd" d="M43 5.1666C43 3.79657 42.4614 2.48172 41.5013 1.51268C40.5408 0.543221 39.2385 0 37.8811 0H5.11887C3.7615 0 2.45879 0.543621 1.49871 1.51268C0.538204 2.48214 0 3.79657 0 5.1666V25.8334C0 27.2034 0.5386 28.5183 1.49871 29.4873C2.45921 30.4568 3.7615 31 5.11887 31H37.8811C39.2385 31 40.5412 30.4564 41.5013 29.4873C42.4618 28.5179 43 27.2034 43 25.8334V5.1666ZM40.9524 14.4671H2.048V25.8342C2.048 26.6567 2.37147 27.4442 2.94699 28.0271C3.52448 28.608 4.30436 28.9345 5.11966 28.9345H37.8819C38.6968 28.9345 39.477 28.608 40.0546 28.0271C40.6301 27.4443 40.9536 26.6571 40.9536 25.8342V14.4671H40.9524ZM36.8571 19.6341C36.8571 19.0636 36.3983 18.6005 35.8331 18.6005H31.7379C31.1727 18.6005 30.7139 19.0636 30.7139 19.6341V23.7675C30.7139 24.338 31.1727 24.8011 31.7379 24.8011H35.8331C36.3983 24.8011 36.8571 24.338 36.8571 23.7675V19.6341ZM26.6192 19.6341C26.6192 19.0636 26.1604 18.6005 25.5952 18.6005H7.16667C6.60148 18.6005 6.14267 19.0636 6.14267 19.6341V23.7675C6.14267 24.338 6.60149 24.8011 7.16667 24.8011H25.5952C26.1604 24.8011 26.6192 24.338 26.6192 23.7675V19.6341ZM32.762 20.6676V22.7343H34.8096V20.6676H32.762ZM8.19036 20.6676V22.7343H24.5715V20.6676H8.19036ZM2.04749 8.26775V12.4012H40.9519V8.26775H2.04749ZM40.9519 6.20107V5.16752C40.9519 4.34508 40.6284 3.55752 40.0529 2.9746C39.4754 2.39372 38.6955 2.06723 37.8802 2.06723H5.11799C4.30315 2.06723 3.52286 2.39372 2.94532 2.9746C2.36981 3.55748 2.04633 4.34462 2.04633 5.16752V6.20107H40.9519Z" fill="#4F372D"/>
</svg>
