<svg width="31" height="31" viewBox="0 0 31 31" fill="none" xmlns="http://www.w3.org/2000/svg">
<g clip-path="url(#clip0_114_2131)">
<mask id="mask0_114_2131" style="mask-type:luminance" maskUnits="userSpaceOnUse" x="0" y="0" width="24" height="24">
<path d="M0.247559 0.247681H23.1288V23.129H0.247559V0.247681Z" fill="white"/>
</mask>
<g mask="url(#mask0_114_2131)">
<path d="M0.247571 17.0119C0.247571 16.7678 0.340995 16.5237 0.525947 16.3369L16.3366 0.526301C16.5234 0.341349 16.7675 0.247925 17.0115 0.247925H17.8008C18.0448 0.247925 18.2889 0.341349 18.4757 0.526301L22.8474 4.89797C23.0321 5.08481 23.1255 5.32865 23.1255 5.57276V6.36199C23.1255 6.60607 23.0321 6.85015 22.8472 7.03697L7.03656 22.8476C6.84972 23.0325 6.60563 23.1259 6.36158 23.1259H1.20069C0.674687 23.1259 0.247559 22.699 0.247559 22.1728L0.247571 17.0119Z" fill="#4F372D"/>
</g>
<mask id="mask1_114_2131" style="mask-type:luminance" maskUnits="userSpaceOnUse" x="0" y="26" width="31" height="5">
<path d="M0.247559 26.8828H30.7517V30.7519H0.247559V26.8828Z" fill="white"/>
</mask>
<g mask="url(#mask1_114_2131)">
<path d="M1.20118 30.7517C0.675174 30.7517 0.248047 30.3248 0.248047 29.7986V27.8921C0.248047 27.3659 0.675186 26.9387 1.20118 26.9387H29.7987C30.3249 26.9387 30.7518 27.3659 30.7518 27.8918V29.7983C30.7518 30.3246 30.3247 30.7515 29.7987 30.7515L1.20118 30.7517Z" fill="#4F372D"/>
</g>
</g>
<defs>
<clipPath id="clip0_114_2131">
<rect width="31" height="31" fill="white"/>
</clipPath>
</defs>
</svg>
