<svg width="35" height="35" viewBox="0 0 35 35" fill="none" xmlns="http://www.w3.org/2000/svg">
<path d="M30.4685 13.7839C30.4151 13.5099 30.237 13.2768 29.9868 13.1534C29.7366 13.0298 29.4431 13.0301 29.1935 13.1542C28.3588 13.5377 27.6973 14.2191 27.3395 15.0651C26.9814 15.911 26.9529 16.8603 27.2589 17.7263C27.316 17.8876 27.312 18.0641 27.2479 18.223L26.7881 19.3111H26.7884C26.4159 19.3621 26.0685 19.5266 25.7929 19.7822L23.8633 21.5763V21.5761C23.7987 21.6343 23.7154 21.6677 23.6284 21.6703C22.4732 21.7157 21.3829 22.2167 20.596 23.0637C19.8093 23.911 19.3898 25.0352 19.4299 26.1909V28.3487H19.0744V28.3484C18.9316 28.3484 18.7949 28.405 18.6939 28.506C18.593 28.6069 18.5361 28.7439 18.5364 28.8865V31.8951C18.5361 32.038 18.593 32.1747 18.6939 32.2756C18.7949 32.3766 18.9316 32.4335 19.0744 32.4332H26.354C26.4966 32.4335 26.6336 32.3766 26.7345 32.2756C26.8355 32.1747 26.8921 32.038 26.8921 31.8951V28.8865C26.8921 28.7439 26.8355 28.6069 26.7345 28.506C26.6336 28.405 26.4966 28.3484 26.354 28.3484H25.8464C25.8611 28.1874 25.9324 28.0368 26.0477 27.9233C30.2534 23.8765 30.5648 23.798 30.7117 22.685C31.1024 19.7237 31.0201 16.7193 30.4684 13.7839L30.4685 13.7839ZM25.8158 31.357H19.6125V29.4248H25.8158V31.357ZM29.6448 22.5442C29.5591 23.1922 29.546 23.0633 25.3013 27.1483H25.3016C24.9729 27.4634 24.7793 27.8935 24.7616 28.3486H20.5063V26.1911C20.466 25.312 20.7786 24.4532 21.3749 23.8062C21.9712 23.1592 22.8014 22.7773 23.6807 22.7455C24.0214 22.7303 24.3458 22.5952 24.5968 22.364L26.5259 20.5703L26.5256 20.5706C26.7494 20.3637 27.0743 20.3087 27.3539 20.4302C27.6583 20.5581 27.5467 21.0272 27.3267 21.2716L24.9154 23.9416H24.9152C24.7186 24.1627 24.7373 24.5005 24.9568 24.6987C25.176 24.8968 25.5144 24.8808 25.7138 24.6629L28.1251 21.9928C28.7908 21.2553 28.8428 20.008 27.8791 19.4939L28.2391 18.6421L28.2394 18.6418C28.4062 18.2405 28.4201 17.7916 28.2778 17.3807C28.0682 16.8015 28.0717 16.1668 28.2877 15.59C28.5037 15.0133 28.9184 14.5326 29.457 14.2338C29.9456 16.978 30.0089 19.781 29.6447 22.5442L29.6448 22.5442Z" fill="#4F372D"/>
<path d="M15.9251 28.3485H15.5697L15.5705 26.1907L15.5708 26.191C15.6106 25.0356 15.1916 23.9113 14.4052 23.0641C13.6185 22.2168 12.5288 21.7151 11.3738 21.6689C11.2865 21.6662 11.2032 21.6325 11.1386 21.5743L9.21011 19.7796C8.934 19.5243 8.58606 19.3604 8.21357 19.3099L7.75455 18.2223V18.2226C7.68992 18.0765 7.68165 17.9115 7.73185 17.7601C8.04854 16.8906 8.02638 15.9339 7.6699 15.0802C7.31342 14.2263 6.64854 13.5379 5.80793 13.1517C5.55799 13.0276 5.26426 13.0276 5.01462 13.1517C4.76468 13.2756 4.5871 13.5095 4.53477 13.7835C3.98362 16.7139 3.90031 19.7131 4.2875 22.6702C4.43517 23.7993 4.74278 23.871 8.95193 27.9238C9.06675 28.0375 9.13778 28.1881 9.15247 28.3489H8.64565C8.50279 28.3489 8.36607 28.4055 8.26513 28.5064C8.16419 28.6074 8.10732 28.7444 8.10732 28.887V31.8956C8.10732 32.0385 8.16419 32.1752 8.26513 32.2761C8.36607 32.377 8.50279 32.4339 8.64565 32.4337H15.9252C16.0681 32.4339 16.2051 32.377 16.306 32.2761C16.407 32.1752 16.4636 32.0385 16.4636 31.8956V28.887C16.4636 28.7444 16.407 28.6074 16.306 28.5064C16.2051 28.4055 16.0681 28.3489 15.9252 28.3489L15.9251 28.3485ZM9.69826 27.1477C5.43544 23.0438 5.4418 23.1957 5.35477 22.53C4.99322 19.7708 5.05784 16.9723 5.5465 14.2325C6.08911 14.5332 6.50538 15.0189 6.7201 15.6011C6.93479 16.1832 6.93345 16.8227 6.71609 17.4038C6.57751 17.8075 6.59406 18.2484 6.76282 18.6404L7.12171 19.4907C6.19243 19.9828 6.18655 21.2258 6.87684 21.9895L9.28679 24.6601L9.28705 24.6603C9.48679 24.8777 9.82458 24.8937 10.0438 24.6959C10.2633 24.498 10.282 24.1605 10.0862 23.9394L7.67576 21.2689C7.45706 21.0256 7.33423 20.5607 7.6592 20.4229V20.4226C7.93665 20.3068 8.25602 20.3634 8.47712 20.5671L10.4053 22.3618C10.6558 22.5931 10.9803 22.7284 11.321 22.7439C12.2003 22.776 13.0303 23.1584 13.6263 23.8056C14.2223 24.4529 14.5347 25.3116 14.4947 26.1907L14.4939 28.3486L10.2377 28.3483C10.2198 27.8933 10.0265 27.4631 9.69827 27.1475L9.69826 27.1477ZM15.3871 31.3572H9.18372V29.4249H15.3871V31.3572Z" fill="#4F372D"/>
<path d="M17.5001 18.1719C15.4307 18.1719 13.4458 17.3498 11.9825 15.8864C10.5192 14.423 9.69727 12.4385 9.69727 10.369C9.69727 8.2996 10.5191 6.31472 11.9825 4.85142C13.4459 3.38812 15.4306 2.56616 17.5001 2.56616C19.5694 2.56616 21.5542 3.38805 23.0175 4.85142C24.4808 6.31479 25.303 8.29953 25.303 10.369C25.3006 12.4377 24.4777 14.4209 23.0148 15.8837C21.552 17.3466 19.5688 18.1695 17.5001 18.1719ZM17.5001 3.64282V3.64256C15.7161 3.64256 14.005 4.35124 12.7436 5.61267C11.4821 6.87411 10.7734 8.58521 10.7734 10.3693C10.7734 12.1533 11.4821 13.8641 12.7436 15.1256C14.005 16.387 15.7161 17.0957 17.5001 17.0957C19.2842 17.0957 20.995 16.387 22.2565 15.1256C23.5179 13.8641 24.2266 12.1533 24.2266 10.3693C24.2247 8.58576 23.5152 6.87596 22.2543 5.61507C20.9931 4.3539 19.2833 3.64467 17.5001 3.64256L17.5001 3.64282Z" fill="#4F372D"/>
<path d="M17.5 16.2886C15.9299 16.2886 14.4244 15.6651 13.3144 14.555C12.2043 13.4447 11.5806 11.9392 11.5806 10.3694C11.5806 8.79925 12.2043 7.29377 13.3144 6.18375C14.4244 5.07373 15.9299 4.44995 17.5 4.44995C19.0699 4.44995 20.5754 5.07373 21.6854 6.18375C22.7957 7.29377 23.4192 8.79932 23.4192 10.3694C23.4176 11.9387 22.7933 13.4432 21.6835 14.5529C20.5737 15.6627 19.0693 16.287 17.5 16.2886V16.2886ZM17.5 5.52606V5.52633C16.2153 5.52633 14.9836 6.03635 14.0753 6.94479C13.1669 7.85294 12.6566 9.08478 12.6566 10.3695C12.6566 11.6539 13.1669 12.8857 14.0753 13.7941C14.9835 14.7023 16.2153 15.2126 17.5 15.2126C18.7844 15.2126 20.0162 14.7023 20.9247 13.7941C21.8328 12.8857 22.3431 11.6539 22.3431 10.3695C22.3415 9.08532 21.831 7.85431 20.9231 6.94643C20.015 6.03855 18.7839 5.5277 17.5001 5.5264L17.5 5.52606Z" fill="#4F372D"/>
<path d="M19.6671 11.6922C19.6671 10.8684 19.0369 9.97545 17.5325 9.82191C16.6774 9.73593 16.4099 9.37891 16.4099 9.04617C16.4099 8.62052 16.9092 8.26113 17.5004 8.26113C17.8847 8.24511 18.2529 8.41601 18.4884 8.71989C18.6516 8.96822 18.9854 9.03765 19.2337 8.87449C19.482 8.71134 19.5514 8.37755 19.3883 8.12924C19.07 7.67075 18.5859 7.3535 18.0385 7.24481V6.8739C18.0385 6.5767 17.7976 6.33557 17.5004 6.33557C17.2032 6.33557 16.9621 6.5767 16.9621 6.8739V7.25014V7.24988C16.5268 7.31957 16.1284 7.53533 15.8323 7.8619C15.5362 8.18848 15.3602 8.60641 15.3337 9.04616C15.3337 9.84111 15.9135 10.7392 17.4238 10.893C18.3055 10.9821 18.5909 11.3672 18.5909 11.6921C18.5909 12.1178 18.0916 12.4772 17.5004 12.4772V12.4775C17.1103 12.4956 16.7364 12.3183 16.5036 12.0048C16.3452 11.7557 16.0154 11.6809 15.7647 11.8371C15.5139 11.9933 15.4362 12.3226 15.5903 12.5746C15.9057 13.0526 16.4002 13.3838 16.962 13.4935V13.8646C16.962 14.1618 17.2031 14.4027 17.5003 14.4027C17.7975 14.4027 18.0384 14.1618 18.0384 13.8646V13.4884C18.4737 13.419 18.8723 13.2029 19.1682 12.8764C19.4643 12.5498 19.6403 12.1321 19.667 11.6921L19.6671 11.6922Z" fill="#4F372D"/>
</svg>
