<svg width="34" height="31" viewBox="0 0 34 31" fill="none" xmlns="http://www.w3.org/2000/svg">
<path d="M18.2506 1.94949e-06C14.1365 -0.0020583 10.1896 1.62894 7.27867 4.53594C4.367 7.44216 2.72833 11.3861 2.72429 15.5003V16.9706L1.51083 15.7572C1.16541 15.4138 0.60709 15.4138 0.261652 15.7572C0.0940891 15.9234 0 16.1493 0 16.3855C0 16.6218 0.0940856 16.8484 0.261652 17.0146L2.98117 19.7341C3.32659 20.0775 3.88422 20.0775 4.22966 19.7341L6.94918 17.0146C7.11675 16.8484 7.21083 16.6218 7.21083 16.3855C7.21083 16.1493 7.11675 15.9234 6.94918 15.7572C6.60376 15.4138 6.04544 15.4138 5.70001 15.7572L4.49546 16.9706V15.5003C4.49546 11.8592 5.94173 8.36724 8.51628 5.79258C11.0909 3.21793 14.5829 1.77106 18.224 1.77106C21.8651 1.77106 25.3571 3.21801 27.9318 5.79258C30.5064 8.36724 31.9526 11.8592 31.9526 15.5003C31.9526 19.1414 30.5063 22.6327 27.9318 25.2081C25.3571 27.7827 21.8651 29.2289 18.224 29.2289C17.7351 29.2289 17.3381 29.6251 17.3381 30.1148C17.3381 30.6037 17.7351 31 18.224 31C23.7619 31 28.8787 28.0456 31.6476 23.2502C34.4165 18.4548 34.4165 12.546 31.6476 7.74987C28.8787 2.95445 23.7619 5.56007e-05 18.224 5.56007e-05L18.2506 1.94949e-06Z" fill="#4F372D"/>
<path d="M18.2504 6.70512C17.7614 6.70512 17.3645 7.10205 17.3645 7.59101V16.386C17.3645 16.6208 17.4579 16.8461 17.6241 17.0123C17.7903 17.1785 18.0155 17.2719 18.2504 17.2719H25.4515C25.9405 17.2719 26.3367 16.8756 26.3367 16.386C26.3367 15.897 25.9405 15.5008 25.4515 15.5008H19.1363V7.59098C19.1363 7.35612 19.0429 7.13086 18.8767 6.96468C18.7105 6.79849 18.4853 6.70512 18.2504 6.70512Z" fill="#4F372D"/>
</svg>
