<svg width="34" height="30" viewBox="0 0 34 30" fill="none" xmlns="http://www.w3.org/2000/svg">
<path d="M9.1427 0.000160633C8.83961 -0.00674896 8.57572 0.209962 8.51832 0.513038C8.48715 0.677927 8.52141 0.848781 8.614 0.987909C8.70659 1.12704 8.84949 1.22315 9.01152 1.25487C10.5013 1.54727 11.4837 2.17129 12.1519 2.90126C12.1745 2.93487 12.2001 2.96565 12.2285 2.99422C12.5868 3.40597 12.8538 3.84689 13.0544 4.27969C11.4467 4.82806 10.28 6.37392 10.28 8.18989C10.28 10.4609 12.1028 12.3161 14.3349 12.3161C16.4717 12.3161 18.1905 10.6023 18.3365 8.46438C18.8334 9.03222 19.5476 9.39873 20.3482 9.39873C21.7491 9.39873 22.8745 8.28597 23.0037 6.89308C23.0365 6.81519 23.0534 6.73165 23.0537 6.64716C23.0534 6.56393 23.0368 6.48133 23.005 6.4047C22.8957 5.20711 22.0473 4.2213 20.9229 3.96434C20.9056 3.36195 21.0111 2.27806 21.9201 1.63678C22.2022 1.43765 22.2722 1.04381 22.0769 0.756777C21.9552 0.578067 21.7522 0.475369 21.5389 0.484793C21.4216 0.490132 21.3083 0.529077 21.212 0.597227C20.7266 0.939877 20.3926 1.35539 20.1611 1.78758C19.1358 1.69807 18.0821 1.64656 17.0003 1.64656C15.576 1.64656 14.1954 1.73105 12.8735 1.884C12.0356 1.04508 10.8686 0.329665 9.24725 0.0111924C9.21268 0.00459682 9.17781 0.000827832 9.14262 0.000199892L9.1427 0.000160633ZM24.283 2.42541C23.9993 2.43483 23.758 2.63835 23.6963 2.92007C23.6605 3.0837 23.6901 3.2555 23.7787 3.39714C23.8672 3.53879 24.0077 3.63898 24.1688 3.67509C26.7984 4.27025 28.9993 5.18673 30.4993 6.26275C31.999 7.33845 32.7564 8.51996 32.7564 9.70059V9.797C32.7564 10.7342 32.2576 11.6651 31.2366 12.5587C30.2157 13.4518 28.6903 14.2659 26.816 14.89C26.4898 14.9984 26.3114 15.3551 26.4175 15.6874C26.4685 15.847 26.5799 15.9795 26.7271 16.0555C26.8743 16.1315 27.0453 16.145 27.2021 16.0929C29.1889 15.4314 30.8487 14.5662 32.0468 13.5178C32.307 13.2901 32.541 13.0499 32.7564 12.8021V16.1536C32.7564 16.3838 32.6576 16.6008 32.4842 16.7494C32.3113 16.897 32.0835 16.9601 31.861 16.9212C31.5345 16.8634 31.1953 16.8031 30.8783 16.7468H30.877C29.7974 16.5568 28.6922 16.8935 27.8909 17.6542H27.8897C27.1147 18.3907 25.3295 19.0631 23.3172 19.4726C21.3048 19.8822 19.0611 20.075 17.3074 20.0932C14.7213 20.1193 14.1071 19.6316 12.5031 18.9211C12.2688 18.8175 11.996 18.8699 11.8154 19.0534C11.8154 19.0534 10.1351 20.7625 8.63857 22.7003C8.20091 23.2669 7.86573 23.3668 7.59134 23.3504C7.31726 23.3341 7.01727 23.1519 6.78613 22.8523C6.43736 22.4004 6.09076 21.4217 5.78149 20.4924C5.62656 20.0279 5.47347 19.5737 5.29414 19.1733C5.11514 18.7728 4.93519 18.4041 4.53859 18.1447C3.6151 17.5411 2.69635 16.9393 2.0204 16.4971C1.53583 16.1802 1.24417 15.6369 1.24417 15.0508V9.70064C1.24417 8.68717 1.79386 7.68431 2.90714 6.72857C4.02041 5.77283 5.67746 4.90851 7.70807 4.25372C7.86547 4.20315 7.99633 4.09072 8.07226 3.94184C8.14788 3.79266 8.16269 3.61898 8.1127 3.45912C8.0627 3.29894 7.95221 3.16578 7.80591 3.08851C7.6593 3.01125 7.48863 2.99649 7.33153 3.04737C5.18832 3.73833 3.3976 4.65131 2.10528 5.76062C0.813034 6.87025 0 8.21819 0 9.70064V15.0508C0 15.8169 0.289509 16.5449 0.791938 17.0917V22.3046C0.791938 23.048 1.00799 23.7676 1.38854 24.4234C2.39223 26.1549 4.47775 27.5006 7.20398 28.4671C9.9299 29.4335 13.3213 30 16.9999 30C21.3758 30 25.3428 29.2019 28.271 27.875C29.7351 27.2113 30.9438 26.4161 31.8108 25.4878C32.6781 24.5597 33.208 23.4714 33.208 22.3046V17.7704C33.2324 17.7512 33.2608 17.7386 33.2846 17.7185C33.738 17.33 34 16.7559 34 16.1535V9.7006C34 7.9738 32.9089 6.44247 31.2158 5.22791C29.5225 4.01344 27.1865 3.06236 24.4384 2.44021C24.3874 2.42891 24.335 2.42388 24.2828 2.42545L24.283 2.42541ZM17.0003 2.91253C17.9407 2.91253 18.8561 2.95713 19.7518 3.02748C19.6904 3.39338 19.6753 3.71812 19.6824 3.98917C18.7197 4.24137 17.9629 5.01744 17.7265 6.00172C17.0191 4.84248 15.7731 4.06451 14.3348 4.06451C14.3277 4.06451 14.3212 4.06577 14.3141 4.06577C14.2731 3.96464 14.2376 3.86445 14.1904 3.76175C14.0833 3.52934 13.9515 3.29285 13.8064 3.05698C14.8379 2.96307 15.9058 2.91253 17.0003 2.91253ZM20.3481 5.16001C21.1626 5.16001 21.8095 5.81831 21.8095 6.64713C21.8095 7.47568 21.1626 8.13296 20.3481 8.13296C19.5339 8.13296 18.8867 7.47561 18.8867 6.64713C18.8867 5.81827 19.5339 5.16001 20.3481 5.16001ZM14.7164 5.37013C16.0916 5.55951 17.1447 6.73568 17.1447 8.18983C17.1447 9.77681 15.8944 11.0504 14.3349 11.0504C12.7754 11.0504 11.5238 9.77681 11.5238 8.18983C11.5238 6.91626 12.3353 5.85849 13.459 5.48502C13.6167 6.1631 13.6303 6.66187 13.6303 6.66187C13.629 6.82958 13.6932 6.99133 13.809 7.11067C13.9247 7.23034 14.0824 7.29848 14.2475 7.29975C14.5904 7.30257 14.871 7.02211 14.8744 6.67286C14.8744 6.67286 14.8781 6.13739 14.7164 5.37013ZM29.3028 7.55795C29.2907 7.55858 29.279 7.55952 29.2673 7.56046C28.9256 7.59501 28.6759 7.905 28.7099 8.25268L28.8241 9.405C28.858 9.75267 29.1623 10.0068 29.5043 9.97221C29.6688 9.95588 29.8197 9.87328 29.9244 9.74325C30.029 9.61322 30.0784 9.44614 30.062 9.27874L29.9478 8.12674C29.9145 7.7932 29.6318 7.54381 29.3028 7.55795ZM4.9331 9.05512C4.79791 9.05449 4.66612 9.09877 4.55779 9.18106C4.42569 9.28187 4.33866 9.432 4.31551 9.59814C4.29205 9.7646 4.33464 9.93326 4.43402 10.0677L5.11304 10.9885C5.2118 11.1229 5.35903 11.2118 5.5226 11.2357C5.68587 11.2596 5.85193 11.2165 5.98402 11.1157C6.11581 11.0149 6.20315 10.8651 6.2263 10.6986C6.24976 10.5325 6.20686 10.3638 6.10778 10.2294L5.42877 9.30728C5.31148 9.14867 5.12815 9.05543 4.9331 9.05512ZM9.10469 15.252C8.82136 15.2511 8.5729 15.4452 8.50099 15.7244C8.41395 16.0623 8.61242 16.4081 8.94451 16.497C11.3192 17.1314 14.0686 17.492 16.9998 17.492C17.1646 17.492 17.3229 17.4254 17.4396 17.3067C17.5563 17.188 17.6217 17.0268 17.6217 16.8591C17.6217 16.6914 17.5563 16.5303 17.4396 16.4116C17.3229 16.2929 17.1646 16.2263 16.9998 16.2263C14.1689 16.2263 11.518 15.8764 9.26001 15.2731C9.20939 15.2596 9.15723 15.2524 9.10445 15.2521L9.10469 15.252ZM30.1432 17.9643C30.3158 17.9536 30.4908 17.9634 30.6645 17.9938C30.983 18.0504 31.3232 18.1107 31.6485 18.1681C31.7537 18.1867 31.8593 18.1867 31.9642 18.1879V22.3044C31.9642 23.0865 31.621 23.8547 30.9099 24.616C30.1988 25.3776 29.1228 26.1041 27.7661 26.719C25.0521 27.9486 21.2262 28.7338 17.0007 28.7338C13.4476 28.7338 10.1784 28.1807 7.61404 27.2714C5.04923 26.3622 3.21283 25.0764 2.46063 23.7793C2.17576 23.288 2.03687 22.8028 2.03687 22.3044V18.0123C2.61186 18.3882 3.19645 18.7701 3.86742 19.2089C3.86279 19.2061 4.02235 19.3835 4.16279 19.6973C4.30291 20.011 4.45013 20.4381 4.60384 20.8989C4.91062 21.82 5.21834 22.8694 5.80751 23.6332C6.2072 24.1514 6.79887 24.5707 7.52049 24.6137C8.24209 24.6564 9.00686 24.2723 9.61739 23.4824C10.9291 21.7839 12.1809 20.5097 12.4282 20.2547C13.7402 20.8527 14.8266 21.3841 17.3217 21.3586C19.1538 21.3398 21.4507 21.1432 23.5621 20.7132C25.6735 20.2835 27.5941 19.6683 28.7395 18.5797V18.5785C28.7404 18.5778 28.7413 18.5778 28.742 18.5772C29.1296 18.2101 29.6265 17.9962 30.1438 17.9641L30.1432 17.9643Z" fill="#FEFCFC"/>
</svg>
