<svg width="31" height="30" viewBox="0 0 31 30" fill="none" xmlns="http://www.w3.org/2000/svg">
<path d="M2.6183 0.104126H11.4371C12.8207 0.104126 13.9424 1.48765 13.9424 2.60939V11.4282C13.9424 12.8118 12.8207 13.9335 11.4371 13.9335H2.6183C1.23478 13.9335 0.113037 12.55 0.113037 11.4282V2.60939C0.113037 1.22586 1.23478 0.104126 2.6183 0.104126Z" fill="#FEFCFC"/>
<path d="M27.0202 0H19.5115C18.6457 0.000347683 17.8157 0.344576 17.2034 0.956529C16.5911 1.56849 16.2465 2.39809 16.2451 3.26391V10.774C16.2465 11.6398 16.5911 12.4694 17.2034 13.0814C17.8157 13.6934 18.6457 14.0376 19.5115 14.0379H27.0202C27.8856 14.0376 28.716 13.6933 29.3283 13.0814C29.9406 12.4694 30.2852 11.6398 30.2862 10.774V3.26463C30.2855 2.39884 29.941 1.56885 29.3286 0.956529C28.716 0.344567 27.886 0.000356051 27.0202 0ZM28.0234 10.775C28.0223 11.3282 27.5731 11.7757 27.0202 11.7757H19.5115C19.2455 11.7764 18.99 11.6713 18.8012 11.4832C18.6127 11.2955 18.5067 11.0403 18.5063 10.7743V3.2649C18.5074 2.7117 18.9562 2.26421 19.5095 2.26421H27.0203C27.5731 2.26456 28.0213 2.71206 28.0224 3.2649L28.0234 10.775Z" fill="#FEFCFC"/>
<path d="M18.8478 16.0632H27.6666C29.0502 16.0632 30.1719 17.4468 30.1719 18.5685V27.3873C30.1719 28.7709 29.0502 29.8926 27.6666 29.8926H18.8478C17.4643 29.8926 16.3425 28.5091 16.3425 27.3873V18.5685C16.3425 17.185 17.4643 16.0632 18.8478 16.0632Z" fill="#FEFCFC"/>
<path d="M10.7747 15.9581H3.26392C2.39812 15.9592 1.56849 16.3038 0.95653 16.9161C0.344568 17.5284 0.000712101 18.3587 0 19.2242V26.7336C0.000695367 27.5993 0.344577 28.4293 0.95653 29.0417C1.56849 29.654 2.39809 29.9985 3.26392 30H10.7747C11.6405 29.9986 12.4705 29.654 13.0825 29.0417C13.6941 28.4293 14.0383 27.5994 14.039 26.7336V19.2242C14.0383 18.3587 13.6941 17.5284 13.0825 16.9161C12.4705 16.3038 11.6405 15.9592 10.7747 15.9581ZM11.7758 26.7331C11.7758 27.2863 11.3279 27.7349 10.7747 27.7363H3.26392C2.71107 27.7345 2.26395 27.286 2.26395 26.7331V19.2237C2.26395 18.6709 2.71179 18.222 3.26463 18.2206H10.7747C11.3279 18.222 11.7758 18.6708 11.7758 19.2237V26.7331Z" fill="#FEFCFC"/>
</svg>
