<svg width="30" height="30" viewBox="0 0 30 30" fill="none" xmlns="http://www.w3.org/2000/svg">
<path d="M3.99993 0.000231295C1.79082 0.000269692 0 1.79112 0 4.00023V26C0 28.2091 1.79086 30 4 30H25.9992C28.2084 30 29.9992 28.2091 29.9992 26V13.8461C29.9992 13.2089 29.4826 12.6924 28.8454 12.6925C28.2083 12.6925 27.6919 13.209 27.6919 13.8461V23.6924C27.6919 25.9016 25.901 27.6924 23.6919 27.6924H6.30751C4.09837 27.6924 2.30751 25.9016 2.30751 23.6924V6.30769C2.30751 4.09855 4.09837 2.30769 6.30751 2.30769H16.1533C16.7905 2.30769 17.3071 1.7911 17.3071 1.15386C17.3071 0.516602 16.7905 8.97918e-06 16.1533 2.00554e-05L3.99993 0.000231295ZM25.5896 0.000300819C24.4571 0.000300819 23.3243 0.428866 22.466 1.28716L5.76907 17.9844V24.2313H12.0159L28.7128 7.53409C30.4291 5.81783 30.4291 3.00342 28.7128 1.28716C27.8549 0.429182 26.7221 0.000300819 25.5896 0.000300819Z" fill="#4F372D"/>
</svg>
