<svg width="34" height="34" viewBox="0 0 34 34" fill="none" xmlns="http://www.w3.org/2000/svg">
<path d="M31.1087 20.0945V9.63086C31.1092 9.35097 31.0332 9.07652 30.8887 8.83684C30.7442 8.59715 30.537 8.40183 30.2892 8.27161L17.7152 1.64652C17.2675 1.41047 16.7318 1.41047 16.2841 1.64652L3.71007 8.2726C3.46234 8.40282 3.25508 8.59815 3.1106 8.83784C2.96611 9.07752 2.89011 9.35197 2.89063 9.63186V24.3707C2.89011 24.6506 2.96611 24.9253 3.1106 25.165C3.25509 25.4044 3.46235 25.6 3.71007 25.73L16.2841 32.3561C16.7321 32.5921 17.2675 32.5921 17.7152 32.3561L25.4635 28.2705C26.546 29.0737 27.9078 29.4028 29.2375 29.1828C30.5671 28.9626 31.7503 28.2122 32.516 27.1033C33.2818 25.9941 33.5645 24.6219 33.2994 23.3004C33.0341 21.9791 32.2437 20.8222 31.1094 20.0945L31.1087 20.0945ZM24.6558 6.18969L12.1509 12.5195C11.8972 12.6472 11.6842 12.8427 11.5353 13.0848C11.3867 13.3265 11.3084 13.6051 11.3094 13.8891V19.8019C11.3094 19.8753 11.2648 19.9412 11.1966 19.9684C11.1286 19.9959 11.0508 19.9791 11.0002 19.9261L9.8687 18.7451V18.7448C9.63654 18.5046 9.29724 18.4006 8.97043 18.4696L8.23245 18.6284C8.17953 18.6398 8.12402 18.6268 8.082 18.5926C8.03972 18.5586 8.01534 18.5072 8.01534 18.453V11.8251C8.0143 11.5418 8.17357 11.2824 8.42674 11.155L21.5101 4.53254L24.6558 6.18969ZM16.6499 2.34045C16.8691 2.22476 17.1311 2.22476 17.35 2.34045L20.6592 4.08467L8.07321 10.4556C7.93236 10.5277 7.80318 10.6211 7.6906 10.7323L4.13786 8.93419L16.6499 2.34045ZM16.6079 31.6376L4.07636 25.0343C3.82994 24.9048 3.67559 24.6496 3.67559 24.3712C3.67559 24.3712 3.68104 9.59982 3.68207 9.58388L7.28899 11.4093L7.28925 11.4095C7.25086 11.5454 7.23141 11.6863 7.23167 11.8277V18.4535C7.23193 18.7445 7.3637 19.0195 7.59016 19.2024C7.81661 19.385 8.11336 19.4555 8.39792 19.3943L9.13616 19.2353L9.1359 19.2356C9.19686 19.2228 9.26015 19.2426 9.30295 19.2877L10.4344 20.469V20.4693C10.6129 20.6555 10.8586 20.7624 11.1166 20.766C11.3745 20.7696 11.6232 20.6698 11.8069 20.4887C11.9906 20.3076 12.0941 20.0604 12.0941 19.8023V13.8904C12.0941 13.8746 12.0993 13.8598 12.1003 13.8442L16.3085 15.9736H16.3083C16.4043 16.0216 16.5052 16.0592 16.6089 16.0859L16.6079 31.6376ZM16.6603 15.2724L12.5548 13.1946L25.5067 6.63932L29.8625 8.93472L17.3396 15.2731C17.1259 15.3808 16.8737 15.3808 16.66 15.2731L16.6603 15.2724ZM17.3921 31.6376V16.0859C17.4964 16.0592 17.5975 16.0213 17.6938 15.9733L30.3183 9.58349C30.3183 9.59802 30.3237 17.9035 30.3245 19.6812C28.9074 19.0924 27.2976 19.191 25.9629 19.9487C24.6283 20.7064 23.7183 22.0379 23.4973 23.5564C23.2766 25.0752 23.7694 26.6108 24.833 27.7171L17.3921 31.6376ZM28.4222 28.47C26.9547 28.4721 25.5929 27.7069 24.8318 26.4524C24.0705 25.1979 24.0202 23.6369 24.6995 22.336C25.3787 21.0354 26.6886 20.1846 28.1529 20.0922C29.6175 20.0001 31.0237 20.6803 31.8605 21.8857L28.6847 24.7547C28.5529 24.8862 28.3745 24.9604 28.1882 24.9604C28.002 24.9604 27.8233 24.8862 27.6915 24.7547L27.153 24.2146C26.9991 24.066 26.7545 24.0681 26.6033 24.2193C26.4521 24.3705 26.45 24.6151 26.5984 24.7689L27.1384 25.3093C27.4183 25.5889 27.7981 25.7458 28.194 25.7453C28.5799 25.7471 28.9511 25.5951 29.2248 25.3228L32.2551 22.5858C32.8302 23.8821 32.7101 25.3809 31.9363 26.5689C31.1625 27.757 29.8399 28.4729 28.4222 28.4708L28.4222 28.47Z" fill="#4F372D"/>
</svg>
