<svg width="16" height="32" viewBox="0 0 16 32" fill="none" xmlns="http://www.w3.org/2000/svg">
<path d="M15.5211 0.175733C15.2593 -0.0697434 14.8482 -0.0564017 14.6032 0.205442L10.4042 4.68996C9.60532 4.42636 8.75209 4.2758 7.86083 4.2758C3.01453 4.2758 -0.329875 8.5161 0.0259065 11.8529L1.89176 29.3493C2.00254 30.3889 2.87416 31.1727 3.91926 31.1727H11.8064C12.8523 31.1727 13.7236 30.3887 13.8339 29.3486L15.6836 11.9308C16.0437 10.3874 14.7488 6.88151 11.6754 5.23215L15.5514 1.09278C15.7967 0.831442 15.7827 0.420655 15.5211 0.175733ZM13.7434 17.9003C13.7419 17.9003 13.7406 17.8996 13.7394 17.8996H1.98699C1.98347 17.8996 1.9807 17.9013 1.97717 17.9016L1.39432 12.4372H14.3243L13.7434 17.9003ZM13.19 23.1094H10.9817C11.129 22.4583 11.2113 21.7549 11.2113 21.0255C11.2113 20.4037 11.1474 19.7863 11.0336 19.1984H13.6054L13.19 23.1094ZM2.11503 19.1984H4.68362C4.57007 19.7861 4.50612 20.4031 4.50612 21.0255C4.50612 21.7554 4.5882 22.4589 4.73523 23.1094H2.53222L2.11503 19.1984ZM6.06678 23.1094C5.89482 22.4815 5.80494 21.77 5.80494 21.0255C5.80494 20.3971 5.87367 19.7743 6.0051 19.1984H9.71219C9.84387 19.775 9.9126 20.3978 9.9126 21.0255C9.9126 21.77 9.82247 22.481 9.65025 23.1094H6.06678ZM11.8061 29.8744H3.91901C3.53985 29.8744 3.22337 29.5897 3.18308 29.2123L2.67073 24.4088H13.0522L12.5421 29.2123C12.5018 29.5897 12.1858 29.8744 11.8061 29.8744ZM14.3646 11.1347H1.35668C1.70135 8.01478 4.48665 5.5751 7.86064 5.5751C8.39338 5.5751 8.90904 5.64232 9.40526 5.75713L7.38659 7.91276C7.14137 8.17486 7.15522 8.58572 7.4168 8.83045C7.6794 9.07642 8.09002 9.06208 8.33474 8.80074L10.7528 6.21836C12.7166 7.14236 14.1259 8.97481 14.3646 11.1347Z" fill="#FEFCFC"/>
</svg>
