<svg width="37" height="30" viewBox="0 0 37 30" fill="none" xmlns="http://www.w3.org/2000/svg">
<path d="M32.3643 16.7928C31.6937 10.3251 25.7012 5.33826 18.5 5.33826C11.2708 5.33826 5.30634 10.3391 4.63557 16.7857H4.63522C3.99923 16.9888 3.44362 17.3881 3.04853 17.9263C2.65307 18.4649 2.43853 19.1144 2.43506 19.7823V20.0336C2.43437 20.219 2.50785 20.3971 2.63886 20.5281C2.77022 20.6592 2.94802 20.7326 3.13344 20.7319H33.8656C34.051 20.7326 34.2292 20.6592 34.3602 20.5281C34.4912 20.3971 34.5647 20.219 34.564 20.0336V19.7823C34.5584 19.1158 34.3429 18.4681 33.9477 17.9312C33.553 17.3947 32.9985 16.9961 32.3638 16.7927L32.3643 16.7928ZM12.1303 9.60564C10.4729 10.5869 9.15831 12.0553 8.36562 13.8105C8.20654 14.1591 7.79687 14.3151 7.44651 14.1602C7.09611 14.0049 6.93599 13.5966 7.08744 13.2449C7.99618 11.2291 9.50319 9.54162 11.4038 8.41133C11.7334 8.21377 12.1607 8.31914 12.3607 8.64771C12.5604 8.97592 12.4575 9.40426 12.1303 9.60564ZM14.7983 8.43933C14.547 8.51627 14.2885 8.59287 14.0441 8.68368H14.0438C13.6833 8.81642 13.2837 8.63169 13.1506 8.27159C13.0176 7.91114 13.2019 7.51117 13.562 7.37776C13.8414 7.27309 14.1277 7.18229 14.4143 7.09841H14.414C14.7834 6.99547 15.1661 7.21001 15.2718 7.57808C15.3771 7.9465 15.1657 8.3312 14.7983 8.43933Z" fill="#FEFCFC"/>
<path d="M21.7207 2.55312H19.8969V3.99599C19.436 3.96098 18.9681 3.94018 18.5002 3.94018C18.0324 3.94018 17.5644 3.96098 17.1035 3.99599L17.1031 2.55312H15.2794C15.1601 2.56178 15.0444 2.51257 14.9678 2.42107C14.8912 2.32957 14.8631 2.20687 14.8926 2.09111L15.4672 0.279494C15.5258 0.117639 15.6818 0.0115852 15.854 0.0167845H21.1464C21.3183 0.0115857 21.4742 0.117639 21.5328 0.279494L22.1075 2.09111C22.1369 2.20687 22.1088 2.32956 22.0322 2.42107C21.9557 2.51256 21.8399 2.56178 21.7207 2.55312Z" fill="#FEFCFC"/>
<path d="M34.9134 29.6573H2.08638C1.42162 29.6549 0.797806 29.3374 0.404748 28.8012C0.012063 28.265 -0.103007 27.5743 0.0952429 26.94C0.293147 26.3054 0.780797 25.8029 1.40884 25.5851C1.48162 24.9765 1.77483 24.415 2.23268 24.0075C2.69087 23.5996 3.28214 23.3732 3.89524 23.3712H16.7544V22.1279H20.2465V23.3712H33.1048C33.7182 23.3732 34.3095 23.5996 34.7673 24.0075C35.2252 24.4151 35.5184 24.9766 35.5912 25.5851C36.2192 25.8028 36.7068 26.3054 36.9048 26.94C37.103 27.5742 36.9879 28.265 36.5953 28.8012C36.2026 29.337 35.5784 29.6549 34.914 29.6573H34.9134Z" fill="#FEFCFC"/>
<path d="M28.8579 5.91757L29.741 4.83484H29.7407C29.9854 4.53921 30.4228 4.49657 30.7201 4.73884C31.0175 4.98145 31.0636 5.4185 30.8234 5.71758L29.9403 6.80031C29.696 7.09664 29.2579 7.14031 28.9602 6.89736C28.6624 6.65441 28.6167 6.21668 28.8579 5.91757Z" fill="#FEFCFC"/>
<path d="M25.9422 4.86361L26.0198 3.46856C26.0444 3.08593 26.373 2.79445 26.7556 2.81594C27.1386 2.83708 27.4328 3.16322 27.4145 3.54654L27.3368 4.94159V4.94124C27.3143 5.3256 26.9851 5.61917 26.6007 5.59768C26.2163 5.57619 25.9217 5.24797 25.9422 4.86361Z" fill="#FEFCFC"/>
<path d="M31.1817 8.18991L32.5323 7.83293H32.532C32.9035 7.73831 33.2817 7.96082 33.3797 8.33132C33.4775 8.70182 33.2584 9.08203 32.889 9.18324L31.5383 9.54022C31.1668 9.63484 30.7886 9.41233 30.6909 9.04183C30.5928 8.67132 30.8118 8.29112 31.1817 8.18991Z" fill="#FEFCFC"/>
<path d="M7.05865 6.80039L6.17589 5.71766C5.93605 5.41856 5.98249 4.98185 6.27952 4.73963C6.57655 4.49736 7.01359 4.54 7.25826 4.83494L8.14137 5.91767C8.38155 6.21712 8.33546 6.65382 8.03808 6.89641C7.7407 7.13868 7.30334 7.09603 7.05865 6.80039Z" fill="#FEFCFC"/>
<path d="M9.66287 4.94162L9.58523 3.54657V3.54692C9.56755 3.16394 9.86146 2.83849 10.2441 2.817C10.6267 2.79586 10.9549 3.08665 10.9799 3.46894L11.0575 4.86398H11.0579C11.078 5.24835 10.7834 5.57656 10.399 5.59805C10.0147 5.61954 9.68539 5.32598 9.66287 4.94162Z" fill="#FEFCFC"/>
<path d="M5.4607 9.54022L4.11002 9.18324H4.11037C3.74055 9.08204 3.52151 8.70182 3.6196 8.33132C3.71734 7.96082 4.09547 7.73831 4.46701 7.83293L5.81769 8.18991H5.81734C6.18716 8.29111 6.40619 8.67132 6.30811 9.04183C6.21037 9.41233 5.83224 9.63484 5.4607 9.54022Z" fill="#FEFCFC"/>
</svg>
