<svg width="52" height="52" viewBox="0 0 52 52" fill="none" xmlns="http://www.w3.org/2000/svg">
<path d="M44.588 41.0403H39.9812C39.6499 41.0403 39.3817 40.7721 39.3817 40.4408L39.3813 19.978C39.3813 19.6468 39.6495 19.3786 39.9808 19.3786L44.588 19.3782C44.9192 19.3782 45.1874 19.6464 45.1874 19.9776V40.4415C45.1874 40.7727 44.9192 41.0409 44.588 41.0409L44.588 41.0403ZM40.5806 39.8409H43.9881V20.5766H40.5806V39.8409Z" fill="#4F372D"/>
<path d="M36.4457 41.0403H31.839C31.5077 41.0403 31.2395 40.7721 31.2395 40.4409V26.3816C31.2395 26.0503 31.5077 25.7821 31.839 25.7821H36.4457C36.777 25.7821 37.0452 26.0503 37.0452 26.3816V40.4409C37.0452 40.7721 36.7766 41.0403 36.4457 41.0403ZM32.4384 39.841H35.8459V26.9811H32.4384V39.841Z" fill="#4F372D"/>
<path d="M28.3033 41.0403H23.6961C23.3649 41.0403 23.0967 40.7721 23.0967 40.4408V30.4349C23.0967 30.1036 23.3649 29.8354 23.6961 29.8354H28.3029C28.6342 29.8354 28.9024 30.1036 28.9024 30.4349L28.9028 40.4408C28.9028 40.7721 28.6342 41.0403 28.3033 41.0403ZM24.296 39.8409H27.7035V31.0344L24.296 31.0348V39.8409Z" fill="#4F372D"/>
<path d="M20.1601 41.0404H15.5533C15.222 41.0404 14.9539 40.7722 14.9539 40.4409V26.2313C14.9539 25.9 15.222 25.6318 15.5533 25.6318H20.1601C20.4913 25.6318 20.7595 25.9 20.7595 26.2313L20.7599 40.4409C20.7599 40.7722 20.4917 41.0404 20.1601 41.0404ZM16.1531 39.841H19.5607V26.8308H16.1531V39.841Z" fill="#4F372D"/>
<path d="M12.0189 41.0403H7.41171C7.08044 41.0403 6.81226 40.7721 6.81226 40.4409V30.4751C6.81226 30.1438 7.08044 29.8756 7.41171 29.8756H12.0185C12.3497 29.8756 12.6179 30.1438 12.6179 30.4751L12.6183 40.4409C12.6183 40.7721 12.3502 41.0403 12.0189 41.0403ZM8.01154 39.841H11.4191V31.0745H8.01154V39.841Z" fill="#4F372D"/>
<path d="M24.8066 23.4051C24.7082 23.4051 24.6086 23.3809 24.5166 23.3297L18.7592 20.138C18.4696 19.9773 18.3649 19.6127 18.5255 19.3227C18.6862 19.0331 19.0508 18.9284 19.3408 19.089L25.0978 22.2807C25.3874 22.4414 25.4921 22.806 25.3315 23.096C25.222 23.2936 25.0173 23.4051 24.8066 23.4051Z" fill="#4F372D"/>
<path d="M35.161 19.0571C34.9833 19.0571 34.8075 18.9785 34.6893 18.8282C34.4846 18.5679 34.5298 18.1906 34.7901 17.9863L40.8961 13.1839C41.1564 12.9792 41.5336 13.0244 41.738 13.2847C41.9427 13.5449 41.8974 13.9222 41.6372 14.1266L35.5312 18.9289C35.4213 19.015 35.2907 19.0571 35.161 19.0571Z" fill="#4F372D"/>
<path d="M27.2371 23.5228C27.03 23.5228 26.8285 23.4153 26.7174 23.2233C26.5516 22.9369 26.6496 22.5699 26.9364 22.4041L32.6064 19.1263C32.8929 18.9605 33.2598 19.0585 33.4257 19.3453C33.5915 19.6318 33.4935 19.9987 33.2067 20.1646L27.5366 23.4423C27.4422 23.497 27.3391 23.5228 27.2371 23.5228Z" fill="#4F372D"/>
<path d="M10.8782 23.3807C10.664 23.3807 10.4565 23.2656 10.3486 23.0633C10.1927 22.7709 10.303 22.4079 10.5954 22.252L16.4118 19.1495C16.7038 18.9936 17.0672 19.1043 17.2232 19.3963C17.3791 19.6883 17.2688 20.0517 16.9764 20.2076L11.1599 23.3101C11.0699 23.3581 10.973 23.3807 10.8782 23.3807Z" fill="#4F372D"/>
<path d="M42.2844 14.7489C41.2394 14.7489 40.3896 13.8991 40.3896 12.8541C40.3893 11.8091 41.2394 10.9594 42.2844 10.9594C43.3294 10.9594 44.1791 11.8091 44.1791 12.8541C44.1791 13.8991 43.329 14.7489 42.2844 14.7489ZM42.2844 12.1586C41.9008 12.1586 41.5889 12.4708 41.5889 12.8541C41.5889 13.2377 41.9012 13.5495 42.2844 13.5495C42.668 13.5495 42.9799 13.2373 42.9799 12.8541C42.9799 12.4704 42.6676 12.1586 42.2844 12.1586Z" fill="#4F372D"/>
<path d="M34.1423 21.1524C33.0973 21.1524 32.2476 20.3026 32.2476 19.2577C32.2476 18.2127 33.0974 17.3629 34.1423 17.3629C35.1873 17.3629 36.0371 18.2127 36.0371 19.2577C36.0371 20.3026 35.1869 21.1524 34.1423 21.1524ZM34.1423 18.5622C33.7587 18.5622 33.4468 18.8744 33.4468 19.2576C33.4464 19.6413 33.7587 19.9531 34.1423 19.9531C34.526 19.9531 34.8378 19.6409 34.8378 19.2576C34.8378 18.874 34.5256 18.5622 34.1423 18.5622Z" fill="#4F372D"/>
<path d="M26 25.2058C24.955 25.2058 24.1052 24.356 24.1052 23.311C24.1052 22.266 24.955 21.4163 26 21.4163C27.0449 21.4163 27.8947 22.2661 27.8947 23.311C27.8947 24.356 27.0445 25.2058 26 25.2058ZM26 22.6155C25.6163 22.6155 25.3045 22.9277 25.3045 23.311C25.3045 23.6946 25.6167 24.0064 26 24.0064C26.3836 24.0064 26.6954 23.6942 26.6954 23.311C26.6954 22.9277 26.3832 22.6155 26 22.6155Z" fill="#4F372D"/>
<path d="M9.71555 25.2464C8.67057 25.2464 7.8208 24.3966 7.8208 23.3517C7.8208 22.3067 8.6706 21.4569 9.71555 21.4569C10.7605 21.4569 11.6103 22.3067 11.6103 23.3517C11.6103 24.3966 10.7601 25.2464 9.71555 25.2464ZM9.71555 22.6562C9.33192 22.6562 9.02008 22.9684 9.02008 23.3516C9.02008 23.7353 9.33231 24.0471 9.71555 24.0471C10.0992 24.0471 10.411 23.7349 10.411 23.3516C10.411 22.968 10.0988 22.6562 9.71555 22.6562Z" fill="#4F372D"/>
<path d="M17.8576 21.0031C16.8127 21.0031 15.9629 20.1533 15.9629 19.1084C15.9629 18.0634 16.8127 17.2136 17.8576 17.2136C18.9026 17.2136 19.7524 18.0634 19.7524 19.1084C19.7524 20.1533 18.9022 21.0031 17.8576 21.0031ZM17.8576 18.4129C17.474 18.4129 17.1622 18.7251 17.1622 19.1083C17.1618 19.492 17.474 19.8042 17.8576 19.8042C18.2413 19.8042 18.5531 19.492 18.5531 19.1087C18.5531 18.7251 18.2409 18.4129 17.8576 18.4129Z" fill="#4F372D"/>
</svg>
