<svg width="41" height="41" viewBox="0 0 41 41" fill="none" xmlns="http://www.w3.org/2000/svg">
<path d="M35.831 24.7762V32.6029C35.8285 33.4581 35.4876 34.2776 34.8829 34.8823C34.2782 35.487 33.4587 35.8279 32.6035 35.8304H24.7768C23.9216 35.8279 23.1021 35.487 22.4974 34.8823C21.8927 34.2776 21.5517 33.4581 21.5493 32.6029V24.7762C21.5518 23.921 21.8927 23.1014 22.4974 22.4968C23.102 21.8921 23.9216 21.5511 24.7768 21.5486H32.6035C33.4587 21.5511 34.2782 21.8921 34.8829 22.4968C35.4876 23.1014 35.8285 23.921 35.831 24.7762ZM16.2239 5.16907H8.39723C7.54199 5.17157 6.72247 5.51253 6.1178 6.11719C5.51313 6.72185 5.17216 7.54138 5.16968 8.39662V16.2233C5.17218 17.0785 5.51314 17.898 6.1178 18.5027C6.72246 19.1074 7.54199 19.4484 8.39723 19.4508H16.2239C17.0791 19.4483 17.8987 19.1074 18.5033 18.5027C19.108 17.8981 19.449 17.0785 19.4515 16.2233V8.39662C19.4489 7.54138 19.108 6.72186 18.5033 6.11719C17.8987 5.51254 17.0791 5.17155 16.2239 5.16907ZM16.2239 21.549H8.39723C7.54199 21.5515 6.72247 21.8925 6.1178 22.4972C5.51313 23.1018 5.17216 23.9214 5.16968 24.7766V32.6033C5.17218 33.4585 5.51314 34.278 6.1178 34.8827C6.72246 35.4874 7.54199 35.8283 8.39723 35.8308H16.2239C17.0791 35.8283 17.8987 35.4874 18.5033 34.8827C19.108 34.278 19.449 33.4585 19.4515 32.6033V24.7766C19.4489 23.9214 19.108 23.1018 18.5033 22.4972C17.8987 21.8925 17.0791 21.5515 16.2239 21.549ZM22.8404 12.867V11.7372C22.4747 11.4597 22.1534 11.1278 21.8881 10.7528C21.708 10.4938 21.6955 10.1531 21.8559 9.88126L23.1631 7.60592C23.3198 7.33128 23.6226 7.17363 23.9376 7.2024C24.3978 7.24338 24.8492 7.35192 25.2771 7.52521L26.2615 6.96029C26.3175 6.50077 26.4486 6.05412 26.6487 5.63715C26.7779 5.35187 27.062 5.16887 27.3751 5.16919H30.0055C30.3186 5.16887 30.6029 5.35186 30.7318 5.63715C30.9398 6.0513 31.0709 6.49959 31.1191 6.9606L32.1035 7.52553C32.5314 7.35223 32.9827 7.24338 33.4429 7.2024C33.7579 7.17362 34.0607 7.33128 34.2174 7.60592L35.5246 9.88126C35.6854 10.1531 35.6726 10.4937 35.4924 10.7528C35.2272 11.1278 34.9059 11.4597 34.5402 11.7372V12.867C34.9037 13.1532 35.2243 13.4901 35.4924 13.8673C35.6726 14.1266 35.6854 14.467 35.5246 14.7388L34.2174 17.0141C34.0607 17.2888 33.7579 17.4464 33.4429 17.4177C32.9828 17.377 32.5314 17.2681 32.1035 17.0949L31.1191 17.6598C31.0684 18.1199 30.9373 18.5679 30.7318 18.9829C30.6029 19.2682 30.3186 19.4515 30.0055 19.4509H27.3751C27.062 19.4515 26.7779 19.2682 26.6487 18.9829C26.4511 18.565 26.3203 18.1183 26.2615 17.6598L25.2771 17.0949C24.8492 17.2682 24.3978 17.377 23.9376 17.4177C23.6226 17.4464 23.3198 17.2888 23.1631 17.0141L21.8559 14.7388C21.6955 14.467 21.708 14.1266 21.8881 13.8673C22.1562 13.4901 22.4769 13.1532 22.8404 12.867ZM27.0845 12.3021C27.0845 12.8785 27.3923 13.4113 27.8915 13.6997C28.3908 13.9878 29.0061 13.9878 29.5053 13.6997C30.0045 13.4112 30.312 12.8785 30.312 12.3021C30.312 11.7256 30.0045 11.1928 29.5053 10.9044C29.006 10.6161 28.3907 10.616 27.8915 10.9044C27.3923 11.1929 27.0845 11.7256 27.0845 12.3021Z" fill="#FEFCFC"/>
</svg>
