<svg width="35" height="31" viewBox="0 0 35 31" fill="none" xmlns="http://www.w3.org/2000/svg">
<path d="M3.55938 11.3545C2.96818 11.3545 2.48901 11.8337 2.48901 12.4249V29.929C2.48901 30.5202 2.96819 30.9994 3.55938 30.9994C4.15057 30.9994 4.62974 30.5202 4.62974 29.929L4.62933 12.4238C4.62933 11.833 4.15015 11.3539 3.55939 11.3539L3.55938 11.3545Z" fill="#4F372D"/>
<path d="M30.6871 11.3545C30.0959 11.3545 29.6167 11.8337 29.6167 12.4249V29.929C29.6167 30.5202 30.0959 30.9994 30.6871 30.9994C31.2783 30.9994 31.7574 30.5202 31.7574 29.929L31.757 12.4238C31.757 11.833 31.2778 11.3539 30.6871 11.3539L30.6871 11.3545Z" fill="#4F372D"/>
<path d="M33.6088 7.21132L17.5566 0.0920982C17.2802 -0.0306994 16.9649 -0.0306994 16.6886 0.0920982L0.636373 7.21132C0.0962107 7.45111 -0.147324 8.08338 0.0920579 8.62356C0.331854 9.16414 0.96412 9.4085 1.5043 9.16788L17.1232 2.24111L32.7422 9.16788C32.8832 9.23053 33.0301 9.25998 33.1753 9.25998C33.5856 9.25998 33.9768 9.02267 34.154 8.62356C34.3938 8.08299 34.1498 7.45114 33.6093 7.21132H33.6088Z" fill="#4F372D"/>
<path d="M25.3371 26.6294H24.38C24.0548 26.0764 23.5532 25.6403 22.9512 25.4001V17.1242C22.9512 16.5235 22.472 16.036 21.8808 16.036H12.2723V13.2082C12.2723 12.6075 11.7931 12.12 11.202 12.12H8.9085C8.3173 12.12 7.83813 12.6071 7.83813 13.2082C7.83813 13.8089 8.31731 14.2964 8.9085 14.2964H10.1316V25.4004C9.06122 25.8282 8.30162 26.8745 8.30162 28.0963C8.30162 29.6969 9.60267 31 11.2016 31C12.5562 31 13.6934 30.0641 14.0111 28.8058H19.0714C19.3888 30.0641 20.5259 31 21.8805 31C23.2351 31 24.3723 30.0641 24.69 28.8058H25.3368C25.928 28.8058 26.4072 28.3187 26.4072 27.7176C26.4072 27.1164 25.928 26.6294 25.3372 26.6294H25.3371ZM21.1212 28.0963C21.1212 27.6951 21.4618 27.369 21.8808 27.369C22.3003 27.369 22.6413 27.6951 22.6413 28.0963C22.6413 28.4975 22.3003 28.8236 21.8808 28.8236C21.4618 28.8236 21.1212 28.4975 21.1212 28.0963ZM17.0907 18.2124V19.2488H15.9925V18.2124H17.0907ZM13.8518 18.2124V20.3374C13.8518 20.9381 14.331 21.4256 14.9222 21.4256H18.1607C18.7519 21.4256 19.231 20.9386 19.231 20.3374V18.2124H20.8104V25.4001C20.2089 25.6403 19.7073 26.0764 19.3825 26.6294H13.7012C13.3759 26.0764 12.8744 25.6403 12.2724 25.4001V18.2124H13.8518ZM10.4423 28.0963C10.4423 27.6951 10.7829 27.369 11.202 27.369C11.621 27.369 11.9624 27.6951 11.9624 28.0963C11.9624 28.4975 11.6214 28.8236 11.202 28.8236C10.7833 28.8236 10.4423 28.4975 10.4423 28.0963Z" fill="#4F372D"/>
</svg>
