<svg width="20" height="29" viewBox="0 0 20 29" fill="none" xmlns="http://www.w3.org/2000/svg">
<path d="M18.2854 8.07897L16.7059 6.4993C16.0782 5.87512 15.7263 5.02583 15.7286 4.14058V3.81301H16.682C17.0611 3.81301 17.4249 3.66235 17.6931 3.39438C17.9613 3.12617 18.1119 2.76239 18.1119 2.38331V1.42994C18.1119 1.05081 17.9613 0.687025 17.6931 0.418863C17.4249 0.150659 17.0611 0 16.682 0H3.33627C2.95714 0 2.59336 0.150659 2.3252 0.418863C2.05723 0.687068 1.90657 1.05085 1.90657 1.42994V2.38331C1.90657 2.76243 2.05723 3.12622 2.3252 3.39438C2.5934 3.66235 2.95719 3.81301 3.33627 3.81301H3.81284V4.14033L3.81308 4.14057C3.81544 5.02583 3.46352 5.87512 2.83579 6.4993L1.25636 8.07896C0.449152 8.88145 -0.00307218 9.97341 1.57103e-05 11.1118V24.3079C0.00119825 25.4451 0.453645 26.5354 1.25776 27.3395C2.06187 28.1437 3.15221 28.5961 4.28958 28.5975H15.2516C16.389 28.5961 17.4793 28.1436 18.2834 27.3395C19.0875 26.5354 19.54 25.4451 19.5412 24.3079V11.1118C19.5442 9.97341 19.092 8.88145 18.2848 8.07896L18.2854 8.07897ZM3.33633 2.85989C3.07309 2.85989 2.85976 2.64656 2.85976 2.38332V1.42995C2.85976 1.16671 3.07309 0.953377 3.33633 0.953377H16.6821C16.8084 0.953377 16.9297 1.00352 17.0191 1.09292C17.1085 1.18232 17.1586 1.30365 17.1586 1.42995V2.38332C17.1586 2.50961 17.1085 2.63094 17.0191 2.72035C16.9297 2.80975 16.8084 2.85989 16.6821 2.85989H3.33633ZM7.94522 14.299H7.94546C7.47527 14.5246 7.04555 14.826 6.67276 15.1907V14.299H5.71939V15.2521H6.61124C5.73428 16.1412 5.24258 17.3398 5.24276 18.5886C5.24276 18.7373 5.25175 18.8835 5.26523 19.029C5.09991 19.0517 4.93317 19.0637 4.76619 19.0651C3.40389 19.0651 2.14518 18.3383 1.46403 17.1586C0.782873 15.9789 0.782873 14.5253 1.46403 13.3456C2.14518 12.1658 3.40389 11.4391 4.76619 11.4391C5.00909 11.4407 5.25128 11.4653 5.48967 11.5126C5.8993 12.7342 6.78482 13.7389 7.94539 14.299L7.94522 14.299ZM11.9158 7.62614V6.712C13.0938 7.39219 13.8204 8.64878 13.8223 10.0092C13.8104 11.017 13.4051 11.9801 12.6925 12.6926C11.9798 13.4053 11.0168 13.8106 10.0093 13.8222C8.82957 13.8236 7.71556 13.2789 6.99233 12.3469C6.26934 11.4147 6.01813 10.2005 6.31239 9.05819C6.60685 7.91586 7.41337 6.97381 8.4968 6.50717C9.58029 6.04054 10.8187 6.10179 11.8508 6.67297H10.9625V7.6261L11.9158 7.62614ZM14.55 11.4539C14.6252 11.4496 14.7002 11.4392 14.7754 11.4392C15.7867 11.4392 16.7565 11.841 17.4716 12.556C18.1866 13.2712 18.5884 14.2409 18.5884 15.2522C18.5884 16.2635 18.1866 17.2335 17.4716 17.9484C16.7565 18.6634 15.7867 19.0652 14.7754 19.0652C13.7641 19.0652 12.7944 18.6634 12.0792 17.9484C11.3642 17.2334 10.9624 16.2635 10.9624 15.2522C10.9634 15.0564 10.9795 14.8608 11.0102 14.6673C12.6792 14.3054 14.0286 13.0805 14.5501 11.4541L14.55 11.4539ZM12.8689 27.6447C11.8581 27.6435 10.8888 27.2414 10.1738 26.5267C9.45907 25.8119 9.05704 24.8428 9.05583 23.8316C9.05701 23.6422 9.07191 23.4532 9.10077 23.2659C10.1885 23.4797 11.3169 23.3063 12.2904 22.7761C13.2638 22.2461 14.0217 21.392 14.4322 20.3623C15.5015 20.8417 16.2903 21.7865 16.5712 22.9239C16.8522 24.0613 16.5939 25.2649 15.8709 26.1869C15.1477 27.1088 14.0406 27.6466 12.8689 27.6447ZM2.85989 23.8316C2.86107 23.0208 3.12052 22.2314 3.60037 21.5779C4.08026 20.9242 4.75573 20.4405 5.52891 20.1965C5.76093 20.844 6.13013 21.4339 6.61143 21.9251H5.71958V22.8783H6.67271L6.67294 21.9866C7.10836 22.4151 7.62207 22.7562 8.18613 22.9911C7.92998 24.3224 8.26938 25.6991 9.11516 26.7587C8.43165 27.3339 7.56625 27.6478 6.67294 27.6447C5.66211 27.6435 4.69288 27.2414 3.97788 26.5267C3.26312 25.8119 2.8611 24.8428 2.85989 23.8316ZM10.0347 14.7756C10.0188 14.9329 10.0094 15.0916 10.0094 15.2522H10.0096C10.0115 16.3104 10.3651 17.338 11.015 18.1731C11.6649 19.0082 12.5741 19.6038 13.5994 19.8656C13.2858 20.7477 12.6585 21.484 11.8372 21.9336C11.0155 22.383 10.0574 22.5145 9.14519 22.303C8.233 22.0914 7.43051 21.5517 6.89079 20.7863C6.35107 20.0209 6.11173 19.0839 6.2186 18.1537C6.32526 17.2233 6.77085 16.3647 7.46998 15.7418C8.16912 15.1188 9.07308 14.7749 10.0096 14.7756L10.0347 14.7756ZM0.95387 24.3081V18.0997C1.67595 19.067 2.73788 19.7243 3.92563 19.939C2.68987 20.8096 1.94151 22.2159 1.91009 23.7274C1.87863 25.2387 2.56757 26.6751 3.76597 27.5965C2.98286 27.4719 2.2698 27.0724 1.75442 26.4698C1.23906 25.8672 0.955263 25.1006 0.95381 24.3078L0.95387 24.3081ZM9.5261 27.6446C9.61053 27.5812 9.69521 27.5192 9.77538 27.4502C9.85509 27.5183 9.93786 27.5817 10.0218 27.6446H9.5261ZM18.5894 24.3081C18.5879 25.1009 18.3041 25.8675 17.7887 26.4701C17.2734 27.0727 16.5603 27.4722 15.7772 27.5968C16.9751 26.6749 17.6643 25.2392 17.6341 23.728C17.604 22.2167 16.8581 20.8097 15.6242 19.9365C16.8091 19.7208 17.8684 19.0647 18.5894 18.1V24.3081ZM14.7763 10.4859H14.7519C14.7678 10.3286 14.7763 10.1694 14.7763 10.0093V10.0091C14.7763 8.30644 13.8679 6.73295 12.3932 5.88148C10.9186 5.03001 9.10172 5.03007 7.6268 5.88148C6.15218 6.73289 5.24374 8.30644 5.24374 10.0091C5.24421 10.1777 5.2532 10.3463 5.27094 10.514C3.59809 10.3305 1.95388 11.0504 0.954126 12.4042V11.1117C0.951761 10.2264 1.30369 9.37714 1.93117 8.75272L3.5106 7.1733H3.51083C4.3178 6.37081 4.77027 5.2786 4.76718 4.1405V3.81293H14.7762V4.1405C14.7731 5.2786 15.2256 6.37081 16.0325 7.1733L17.612 8.75272H17.6122C18.2396 9.37708 18.5916 10.2264 18.5892 11.1117V12.4042C17.6924 11.1985 16.2788 10.4873 14.7762 10.4859L14.7763 10.4859Z" fill="#4F372D"/>
<path d="M8.5791 7.6261H9.53223V8.57923H8.5791V7.6261Z" fill="#4F372D"/>
<path d="M11.4387 9.53271H12.3918V10.4858H11.4387V9.53271Z" fill="#4F372D"/>
<path d="M8.10254 10.9622H9.05567V11.9153H8.10254V10.9622Z" fill="#4F372D"/>
<path d="M3.81274 12.8688H4.76587V13.8219H3.81274V12.8688Z" fill="#4F372D"/>
<path d="M2.3833 15.252H3.33643V16.2051H2.3833V15.252Z" fill="#4F372D"/>
<path d="M7.14966 18.1122H8.10279V19.0653H7.14966V18.1122Z" fill="#4F372D"/>
<path d="M8.5791 16.2056H9.53223V17.1587H8.5791V16.2056Z" fill="#4F372D"/>
<path d="M10.0093 20.0182H10.9624V20.9713H10.0093V20.0182Z" fill="#4F372D"/>
<path d="M12.3923 15.7285H13.3455V16.6816H12.3923V15.7285Z" fill="#4F372D"/>
<path d="M14.2988 13.8219H15.252V14.775H14.2988V13.8219Z" fill="#4F372D"/>
<path d="M15.7285 16.6821H16.6816V17.6353H15.7285V16.6821Z" fill="#4F372D"/>
<path d="M16.2056 12.3923H17.1587V13.3455H16.2056V12.3923Z" fill="#4F372D"/>
<path d="M3.81274 23.355H4.76587V24.3081H3.81274V23.355Z" fill="#4F372D"/>
<path d="M6.19604 25.738H7.14917V26.6912H6.19604V25.738Z" fill="#4F372D"/>
<path d="M10.4856 24.308H11.4387V25.2611H10.4856V24.308Z" fill="#4F372D"/>
<path d="M13.8225 22.8784H14.7756V23.8315H13.8225V22.8784Z" fill="#4F372D"/>
<path d="M12.3923 26.2146H13.3455V27.1677H12.3923V26.2146Z" fill="#4F372D"/>
<path d="M4.29004 17.1586H5.24317V18.1117H4.29004V17.1586Z" fill="#4F372D"/>
<path d="M10.4856 12.3923H11.4387V13.3455H10.4856V12.3923Z" fill="#4F372D"/>
<path d="M6.67236 9.53271H7.62549V10.4858H6.67236V9.53271Z" fill="#4F372D"/>
</svg>
