<svg width="41" height="30" viewBox="0 0 41 30" fill="none" xmlns="http://www.w3.org/2000/svg">
<path d="M40.51 7.37687C40.51 3.23966 33.6289 0 24.8412 0C23.2853 0 21.7553 0.102481 20.2764 0.31626C18.8233 0.110959 17.2845 0 15.6688 0C6.88101 0 0 3.23966 0 7.37687C0 8.47969 0.478805 9.53951 1.42763 10.5056C1.41915 10.6081 1.41066 10.7021 1.41066 10.8049V26.3287C1.41066 27.9185 2.70999 29.2178 4.2998 29.2178H36.2013C37.7911 29.2178 39.0904 27.9185 39.0904 26.3287L39.0908 10.8136C39.0908 10.7111 39.0823 10.6083 39.0738 10.5143C40.0311 9.54004 40.5095 8.48847 40.5095 7.37713L40.51 7.37687ZM2.61619 26.3451V10.8135C2.61619 10.6937 2.63316 10.5654 2.65895 10.446C2.71019 10.2407 2.64198 10.0184 2.48792 9.87316C1.64161 9.0696 1.20554 8.23174 1.20554 7.38579C1.20554 4.03485 7.83046 1.20539 15.6773 1.20539C20.9344 1.20539 25.6526 2.47891 28.1832 4.32561C28.1917 4.33409 28.209 4.34257 28.2175 4.3514C28.2517 4.37719 28.286 4.40264 28.3115 4.41994C28.3457 4.44573 28.3712 4.4627 28.4054 4.48849C29.3715 5.24928 29.9698 6.09559 30.1065 6.96734C30.1065 6.98431 30.115 7.0101 30.115 7.02706C30.115 7.05285 30.1235 7.06982 30.1235 7.09561C30.1235 7.1214 30.132 7.15533 30.132 7.18112V7.23236C30.132 7.27512 30.1405 7.32636 30.1405 7.36911C30.1405 8.2239 29.7129 9.0617 28.8581 9.85648C28.7984 9.90772 28.7556 9.97626 28.7213 10.0445C28.6871 10.113 28.6701 10.1897 28.6701 10.2667C28.6701 10.318 28.6701 10.3692 28.6871 10.4205C28.704 10.5145 28.7213 10.6085 28.7298 10.7024V10.7964V26.3202C28.7298 27.2521 27.969 28.0128 27.0372 28.0128H4.29888C3.37657 28.0382 2.61576 27.2775 2.61576 26.3457L2.61619 26.3451ZM38.0307 9.87266C37.877 10.0179 37.8084 10.2402 37.8597 10.4455C37.8855 10.5653 37.9024 10.6935 37.9024 10.8215V26.3452C37.9024 27.2771 37.1416 28.0378 36.2098 28.0378H29.3885C29.397 28.0293 29.397 28.0208 29.4055 28.0208C29.4398 27.9696 29.474 27.9184 29.508 27.8756C29.508 27.8671 29.5164 27.8671 29.5164 27.8586C29.5507 27.8074 29.585 27.7477 29.6104 27.6876C29.6189 27.6706 29.6274 27.6618 29.6274 27.6448C29.6532 27.5851 29.6871 27.5251 29.7129 27.4653C29.7129 27.4569 29.7129 27.4569 29.7214 27.4484C29.7472 27.3886 29.7642 27.3286 29.7899 27.2773C29.7984 27.2604 29.7984 27.2515 29.8069 27.2346C29.8239 27.1749 29.8412 27.1063 29.8582 27.0466C29.8582 27.0381 29.8666 27.0208 29.8666 27.0123C29.8836 26.9526 29.8924 26.8925 29.9009 26.8328C29.9009 26.8243 29.9009 26.8158 29.9094 26.7985C29.9179 26.73 29.9264 26.6618 29.9352 26.6021V26.5593C29.9437 26.4908 29.9437 26.4225 29.9437 26.354L29.9443 10.8137C29.9443 10.7112 29.9359 10.6084 29.9274 10.5144C30.8762 9.53983 31.355 8.48861 31.355 7.37728C31.355 7.31755 31.355 7.25749 31.3465 7.19777V7.15501C31.3465 7.10377 31.338 7.06102 31.338 7.01826V6.9755C31.3296 6.92426 31.3211 6.86454 31.3123 6.81296V6.80448C31.1327 5.62495 30.3804 4.51361 29.1239 3.5305L29.1154 3.52201C29.0642 3.48774 29.0129 3.44499 28.9702 3.41106C28.9359 3.38527 28.9105 3.3683 28.8762 3.34251C28.8592 3.33403 28.8504 3.32554 28.8334 3.31672C27.6708 2.47889 26.1493 1.76087 24.3715 1.20533H24.8588C32.706 1.20533 39.3305 4.0347 39.3305 7.38574C39.3132 8.23238 38.8857 9.06989 38.0309 9.87345L38.0307 9.87266Z" fill="#4F372D"/>
<path d="M5.7025 11.4884C5.31769 11.8733 5.10425 12.386 5.10425 12.933C5.10425 14.0529 6.01873 14.9674 7.14744 14.9674C8.27572 14.9674 9.19064 14.0529 9.19064 12.933C9.19064 11.8132 8.27615 10.8987 7.14744 10.8987C6.60009 10.8902 6.08699 11.104 5.7025 11.4884ZM7.98459 12.933C7.98459 13.3945 7.6086 13.7708 7.13828 13.7708C6.67678 13.7708 6.29197 13.3949 6.29197 12.933C6.29197 12.7108 6.37748 12.497 6.54003 12.3432C6.70257 12.1807 6.90753 12.0952 7.13828 12.0952C7.6086 12.0867 7.98459 12.463 7.98459 12.933Z" fill="#4F372D"/>
<path d="M16.1654 10.8908C15.6184 10.8908 15.1053 11.1046 14.7208 11.489C14.336 11.8738 14.1226 12.3866 14.1226 12.9336C14.1226 14.0534 15.037 14.9679 16.1658 14.9679C17.2856 14.9679 18.2001 14.0534 18.2001 12.9336C18.1997 11.8053 17.2852 10.8908 16.1654 10.8908ZM16.1654 13.7714C15.7039 13.7714 15.3191 13.3954 15.3191 12.9336C15.3191 12.7113 15.4046 12.4975 15.5671 12.3438C15.7297 12.1813 15.9431 12.0957 16.1654 12.0957C16.6269 12.0957 17.0032 12.4717 17.0032 12.9336C17.0029 13.3954 16.6269 13.7714 16.1654 13.7714Z" fill="#4F372D"/>
<path d="M25.1844 10.8908C24.6374 10.8908 24.1243 11.1046 23.7399 11.489C23.355 11.8738 23.1416 12.3866 23.1416 12.9336C23.1416 14.0534 24.0561 14.9679 25.1848 14.9679C26.3131 14.9679 27.228 14.0534 27.228 12.9336C27.2273 11.8053 26.3128 10.8907 25.1845 10.8907L25.1844 10.8908ZM25.1844 13.7714C24.7229 13.7714 24.3381 13.3954 24.3381 12.9336C24.3381 12.7113 24.4236 12.4975 24.5862 12.3438C24.7487 12.1813 24.9537 12.0957 25.1844 12.0957C25.6459 12.0957 26.0307 12.4717 26.0307 12.9336C26.0307 13.3954 25.6459 13.7714 25.1844 13.7714Z" fill="#4F372D"/>
<path d="M9.27559 15.8225C8.34373 15.8225 7.58301 16.5833 7.58301 17.5236C7.58301 18.4639 8.3438 19.2247 9.27559 19.2247C10.2159 19.2247 10.9767 18.4639 10.9767 17.5236C10.9767 16.5833 10.2159 15.8225 9.27559 15.8225ZM9.27559 18.0194C9.00209 18.0194 8.77982 17.7971 8.77982 17.5151C8.77982 17.2331 9.00209 17.0109 9.27559 17.0109C9.5491 17.0109 9.77985 17.2331 9.77985 17.5151C9.77985 17.7971 9.55792 18.0194 9.27559 18.0194Z" fill="#4F372D"/>
<path d="M16.1653 19.2164C17.1056 19.2164 17.8664 18.4556 17.8664 17.5153C17.8664 16.575 17.1056 15.8142 16.1653 15.8142C15.7123 15.8142 15.2847 15.9937 14.9685 16.31C14.6437 16.6347 14.4727 17.0538 14.4727 17.5068C14.4642 18.4556 15.225 19.2164 16.1653 19.2164ZM15.8063 17.1651C15.9003 17.0711 16.0286 17.0199 16.1568 17.0199C16.4303 17.0199 16.6611 17.2422 16.6611 17.5242C16.6611 17.8061 16.4388 18.0284 16.1568 18.0284C15.8833 18.0284 15.6526 17.8061 15.6526 17.5242C15.6611 17.3874 15.7123 17.2591 15.8063 17.1651Z" fill="#4F372D"/>
<path d="M24.7482 17.5234C24.7482 16.5915 23.9874 15.8223 23.0471 15.8223C22.1152 15.8223 21.3545 16.5831 21.3545 17.5234C21.3545 18.4552 22.1153 19.2245 23.0471 19.2245C23.9874 19.2156 24.7482 18.4548 24.7482 17.5234ZM23.0471 18.0191C22.7736 18.0191 22.5513 17.7969 22.5513 17.5149C22.5513 17.2414 22.7736 17.0106 23.0471 17.0106C23.3206 17.0106 23.5513 17.2329 23.5513 17.5149C23.5513 17.7969 23.3291 18.0191 23.0471 18.0191Z" fill="#4F372D"/>
<path d="M7.14731 19.9513C6.6003 19.9513 6.08723 20.1651 5.70274 20.5496C5.31793 20.9344 5.10449 21.4471 5.10449 21.9941C5.10449 23.1224 6.01898 24.0373 7.14769 24.0373C8.27596 24.0373 9.19088 23.1228 9.19088 21.9941C9.18172 20.8659 8.26719 19.9513 7.14743 19.9513L7.14731 19.9513ZM7.14731 22.8319C6.68581 22.8319 6.301 22.456 6.301 21.9856C6.301 21.7634 6.38652 21.5496 6.54906 21.3959C6.71161 21.2333 6.91657 21.1478 7.14731 21.1478C7.60881 21.1478 7.99362 21.5238 7.99362 21.9856C7.9848 22.4556 7.60881 22.8319 7.14731 22.8319Z" fill="#4F372D"/>
<path d="M16.1654 19.9513C15.6184 19.9513 15.1053 20.1651 14.7208 20.5496C14.336 20.9344 14.1226 21.4471 14.1226 21.9941C14.1226 23.1224 15.037 24.0373 16.1658 24.0373C17.2856 24.0373 18.2001 23.1228 18.2001 21.9941C18.1997 20.8659 17.2852 19.9513 16.1654 19.9513ZM16.1654 22.8319C15.7039 22.8319 15.3191 22.456 15.3191 21.9856C15.3191 21.7634 15.4046 21.5496 15.5671 21.3959C15.7297 21.2333 15.9431 21.1478 16.1654 21.1478C16.6269 21.1478 17.0032 21.5238 17.0032 21.9856C17.0029 22.4556 16.6269 22.8319 16.1654 22.8319Z" fill="#4F372D"/>
<path d="M25.1844 19.9513C24.6374 19.9513 24.1243 20.1651 23.7399 20.5496C23.355 20.9344 23.1416 21.4471 23.1416 21.9941C23.1416 23.1224 24.0561 24.0373 25.1848 24.0373C26.3131 24.0373 27.228 23.1228 27.228 21.9941C27.2273 20.8659 26.3128 19.9513 25.1845 19.9513L25.1844 19.9513ZM25.1844 22.8319C24.7229 22.8319 24.3381 22.456 24.3381 21.9856C24.3381 21.7634 24.4236 21.5496 24.5862 21.3959C24.7487 21.2333 24.9537 21.1478 25.1844 21.1478C25.6459 21.1478 26.0307 21.5238 26.0307 21.9856C26.0307 22.4556 25.6459 22.8319 25.1844 22.8319Z" fill="#4F372D"/>
<path d="M35.7147 12.2155C35.3815 12.2155 35.1165 12.4806 35.1165 12.8138V25.1399C35.1165 25.4731 35.3815 25.7381 35.7147 25.7381C36.0479 25.7381 36.313 25.4731 36.313 25.1399L36.3133 12.8138C36.3133 12.4802 36.0483 12.2152 35.7147 12.2152L35.7147 12.2155Z" fill="#4F372D"/>
<path d="M24.1236 5.03482C26.1067 5.70163 27.2951 6.5819 27.2951 7.38545C27.2951 7.71868 27.5601 7.9837 27.8933 7.9837C28.2265 7.9837 28.4916 7.71868 28.4916 7.38545C28.4916 4.31684 21.8924 2.66699 15.6782 2.66699C9.47229 2.66699 2.86475 4.32535 2.86475 7.38545C2.86475 7.71868 3.12977 7.9837 3.463 7.9837C3.79622 7.9837 4.06125 7.71868 4.06125 7.38545C4.06125 5.71858 9.02781 3.86381 15.6784 3.86381C18.8761 3.85532 21.8765 4.27407 24.1246 5.03482H24.1236Z" fill="#4F372D"/>
</svg>
