<svg width="13" height="12" viewBox="0 0 13 12" fill="none" xmlns="http://www.w3.org/2000/svg">
<path d="M6.50008 0.166748C3.28008 0.166748 0.666748 2.78008 0.666748 6.00008C0.666748 9.22008 3.28008 11.8334 6.50008 11.8334C9.72008 11.8334 12.3334 9.22008 12.3334 6.00008C12.3334 2.78008 9.72008 0.166748 6.50008 0.166748ZM8.83341 6.58341H7.08341V8.33341C7.08341 8.65425 6.82091 8.91675 6.50008 8.91675C6.17925 8.91675 5.91675 8.65425 5.91675 8.33341V6.58341H4.16675C3.84591 6.58341 3.58341 6.32091 3.58341 6.00008C3.58341 5.67925 3.84591 5.41675 4.16675 5.41675H5.91675V3.66675C5.91675 3.34591 6.17925 3.08341 6.50008 3.08341C6.82091 3.08341 7.08341 3.34591 7.08341 3.66675V5.41675H8.83341C9.15425 5.41675 9.41675 5.67925 9.41675 6.00008C9.41675 6.32091 9.15425 6.58341 8.83341 6.58341Z" fill="#4F372D"/>
</svg>
