<svg width="31" height="31" viewBox="0 0 31 31" fill="none" xmlns="http://www.w3.org/2000/svg">
<path d="M3.10011 24.025C3.10024 26.165 4.83509 27.8998 6.97509 27.8998H9.30009C10.1561 27.8998 10.8501 28.5937 10.8501 29.4498C10.8501 30.3058 10.1561 30.9998 9.30009 30.9998H5.42503C2.42887 30.9998 0 28.5709 0 25.5747V21.6994C0 20.8434 0.693955 20.1495 1.54999 20.1495C2.40599 20.1495 3.09993 20.8434 3.09998 21.6994L3.10011 24.025Z" fill="#4F372D"/>
<path d="M3.10023 9.29971C3.10018 10.1557 2.40624 10.8496 1.55023 10.8496C0.694199 10.8496 0.000244141 10.1557 0.000244141 9.29962V5.42483C0.000244141 2.42881 2.429 5.14984e-05 5.42502 5.14984e-05H9.30033C10.1564 5.14984e-05 10.8503 0.694 10.8503 1.55003C10.8503 2.40606 10.1564 3.10001 9.30033 3.10001H6.97533C4.83533 3.10001 3.10048 4.83476 3.10036 6.97477L3.10023 9.29971Z" fill="#4F372D"/>
<path d="M21.7003 30.9996C20.8443 30.9996 20.1504 30.3056 20.1504 29.4496C20.1504 28.5936 20.8444 27.8996 21.7004 27.8996H24.0253C26.1653 27.8996 27.9001 26.1648 27.9001 24.0247V21.6996C27.9001 20.8436 28.5941 20.1497 29.4501 20.1497C30.3061 20.1497 31 20.8436 31 21.6996V25.575C31 28.5711 28.5711 30.9999 25.575 30.9998L21.7003 30.9996Z" fill="#4F372D"/>
<path d="M27.8992 6.97517C27.8993 4.8352 26.1646 3.10037 24.0246 3.10037H21.6996C20.8436 3.10037 20.1497 2.40643 20.1497 1.5504C20.1497 0.694365 20.8436 0.000414848 21.6996 0.000414848H25.5743C28.5703 0.000414848 30.999 2.42912 30.999 5.42508V9.30006C30.999 10.1561 30.3051 10.85 29.4491 10.85C28.5931 10.85 27.8991 10.156 27.8992 9.3L27.8992 6.97517Z" fill="#4F372D"/>
<path d="M6.20068 18.0495C6.20068 17.4973 6.6484 17.0495 7.20068 17.0495H12.9504C13.5027 17.0495 13.9504 17.4973 13.9504 18.0495V23.7994C13.9504 24.3517 13.5027 24.7994 12.9504 24.7994H7.20068C6.6484 24.7994 6.20068 24.3517 6.20068 23.7994V18.0495ZM9.30058 20.9246C9.30058 21.3526 9.64754 21.6996 10.0756 21.6996C10.5036 21.6996 10.8505 21.3526 10.8505 20.9246C10.8505 20.4966 10.5036 20.1496 10.0756 20.1496C9.64754 20.1496 9.30058 20.4966 9.30058 20.9246Z" fill="#4F372D"/>
<path d="M24.7998 23.7994C24.7998 24.3517 24.3521 24.7994 23.7998 24.7994H18.05C17.4978 24.7994 17.05 24.3517 17.05 23.7994V18.0495C17.05 17.4973 17.4978 17.0495 18.05 17.0495H23.7998C24.3521 17.0495 24.7998 17.4973 24.7998 18.0495V23.7994ZM21.7 20.9243C21.7 20.4964 21.353 20.1494 20.9251 20.1494C20.4972 20.1494 20.1502 20.4964 20.1502 20.9244C20.1502 21.3524 20.4972 21.6994 20.9251 21.6994C21.3532 21.6994 21.7001 21.3523 21.7 20.9243Z" fill="#4F372D"/>
<path d="M24.7998 12.95C24.7998 13.5022 24.3521 13.95 23.7998 13.95H18.05C17.4978 13.95 17.05 13.5022 17.05 12.95V7.20005C17.05 6.64777 17.4978 6.20005 18.05 6.20005H23.7998C24.3521 6.20005 24.7998 6.64777 24.7998 7.20005V12.95ZM21.7 10.0748C21.7 9.64689 21.353 9.3 20.925 9.30008C20.4971 9.30016 20.1502 9.64709 20.1502 10.075C20.1502 10.503 20.4972 10.8499 20.9251 10.8499C21.3532 10.8499 21.7001 10.5029 21.7 10.0748Z" fill="#4F372D"/>
<path d="M6.20068 7.20005C6.20068 6.64777 6.6484 6.20005 7.20068 6.20005H12.9504C13.5027 6.20005 13.9504 6.64777 13.9504 7.20005V12.95C13.9504 13.5022 13.5027 13.95 12.9504 13.95H7.20068C6.6484 13.95 6.20068 13.5022 6.20068 12.95V7.20005ZM9.30058 10.0749C9.30058 10.503 9.64763 10.85 10.0757 10.8499C10.5036 10.8498 10.8505 10.5029 10.8505 10.0749C10.8505 9.64687 10.5035 9.29986 10.0754 9.29994C9.64746 9.30002 9.30058 9.64698 9.30058 10.0749Z" fill="#4F372D"/>
</svg>
