<svg width="101" height="101" viewBox="0 0 101 101" fill="none" xmlns="http://www.w3.org/2000/svg">
<path d="M50.5 0.916748C23.13 0.916748 0.916687 23.1301 0.916687 50.5001C0.916687 77.8701 23.13 100.083 50.5 100.083C77.87 100.083 100.083 77.8701 100.083 50.5001C100.083 23.1301 77.87 0.916748 50.5 0.916748ZM50.5 90.1668C28.6338 90.1668 10.8334 72.3663 10.8334 50.5001C10.8334 28.6338 28.6338 10.8334 50.5 10.8334C72.3663 10.8334 90.1667 28.6338 90.1667 50.5001C90.1667 72.3663 72.3663 90.1668 50.5 90.1668ZM69.7384 32.1047L40.5834 61.2597L31.2617 51.938C29.3279 50.0042 26.2042 50.0042 24.2704 51.938C22.3367 53.8717 22.3367 56.9955 24.2704 58.9292L37.1125 71.7713C39.0463 73.7051 42.17 73.7051 44.1038 71.7713L76.7792 39.0959C78.7129 37.1622 78.7129 34.0384 76.7792 32.1047C74.8454 30.1709 71.6721 30.1709 69.7384 32.1047V32.1047Z" fill="#34B12D"/>
</svg>
