<svg width="43" height="43" viewBox="0 0 43 43" fill="none" xmlns="http://www.w3.org/2000/svg">
<path d="M13.6466 36.5236H29.3501C30.3972 36.5236 31.3483 35.6669 31.3483 34.6198L32.3954 13.3964H10.5996L11.6467 34.6198C11.6467 35.6669 12.5034 36.5236 13.6457 36.5236H13.6466ZM23.4491 19.0116C23.4491 18.25 24.1154 17.5837 24.8769 17.5837C25.6385 17.5837 26.3048 18.25 26.3048 19.0116V30.813C26.3048 31.5745 25.6385 32.2409 24.8769 32.2409C24.1154 32.2409 23.4491 31.5745 23.4491 30.813V19.0116ZM16.597 19.0116C16.597 18.25 17.2633 17.5837 18.0248 17.5837C18.7863 17.5837 19.4527 18.25 19.4527 19.0116V30.813C19.4527 31.5745 18.7863 32.2409 18.0248 32.2409C17.2633 32.2409 16.597 31.5745 16.597 30.813V19.0116Z" fill="#4F372D"/>
<path d="M24.1158 6.44995H18.7859C18.2147 6.44995 17.6436 6.92589 17.6436 7.59223V8.25856H12.028C11.5521 8.25856 11.0761 8.63931 11.0761 9.11528L10.9809 9.59122H9.93382C9.36268 9.59122 8.88672 10.0672 8.88672 10.6383C8.88672 11.2095 9.36266 11.6854 9.93382 11.6854H33.1559C33.727 11.6854 34.203 11.2095 34.203 10.6383C34.203 10.0672 33.727 9.59122 33.1559 9.59122H32.1088L31.9199 9.11528C31.8247 8.63933 31.4439 8.25856 30.968 8.25856H25.2579V7.59223C25.2579 7.0211 24.7822 6.44995 24.1158 6.44995Z" fill="#4F372D"/>
</svg>
